<?xml version="1.0" encoding="UTF-8"?>
<svg width="50px" height="50px" viewBox="0 0 50 50" version="1.1" xmlns="http://www.w3.org/2000/svg" xmlns:xlink="http://www.w3.org/1999/xlink">
    <!-- Generator: Sketch 52.4 (67378) - http://www.bohemiancoding.com/sketch -->
    <title>Shape</title>
    <desc>Created with Sketch.</desc>
    <g id="Page-1" stroke="none" stroke-width="1" fill="none" fill-rule="evenodd">
        <g id="Weather---Avenir-Next" transform="translate(-318.000000, -611.000000)" fill="#FFFFFF" fill-rule="nonzero">
            <g id="Group-3" transform="translate(309.000000, 499.000000)">
                <g id="Group-4" transform="translate(9.000000, 36.000000)">
                    <path d="M0,100.988973 C0,100.415528 0.198500314,99.9303047 0.595500941,99.5333041 C1.00720435,99.1510077 1.47772339,98.9598596 2.00705806,98.9598596 L6.81517392,98.9598596 C7.35921137,98.9598596 7.8113508,99.1583599 8.17159223,99.555359 C8.53183365,99.9523596 8.71195436,100.430231 8.71195436,100.988973 C8.71195436,101.547714 8.53183365,102.021909 8.17159223,102.411557 C7.8113508,102.801206 7.35921137,102.996031 6.81517392,102.996031 L2.00705806,102.996031 C1.46302061,102.996031 0.992501568,102.79753 0.595500941,102.40053 C0.198500314,102.003529 0,101.53301 0,100.988973 Z M6.72695122,117.288046 C6.72695122,116.744008 6.91074876,116.266137 7.27834081,115.854434 L10.7410673,112.501985 C11.0939566,112.134393 11.5571235,111.950595 12.1305695,111.950595 C12.6893098,111.950595 13.1561535,112.127041 13.5310977,112.47993 C13.9060434,112.832819 14.0935162,113.281282 14.0935162,113.825321 C14.0935162,114.398765 13.9023666,114.898691 13.5200702,115.325099 L10.1676228,118.677548 C9.21188046,119.427438 8.24878746,119.427438 7.27834081,118.677548 C6.91074876,118.280547 6.72695122,117.81738 6.72695122,117.288046 Z M6.72695122,84.7119544 C6.72695122,84.1679169 6.91074876,83.6900457 7.27834081,83.2783423 C7.73415707,82.8960445 8.23408318,82.7048963 8.77812063,82.7048963 C9.29275101,82.7048963 9.75591791,82.8960445 10.1676228,83.2783423 L13.5200702,86.7410673 C13.9023666,87.0939566 14.0935162,87.5571235 14.0935162,88.1305695 C14.0935162,88.6893113 13.9060434,89.1561535 13.5310977,89.5310992 C13.1561535,89.9060434 12.6893098,90.0935162 12.1305695,90.0935162 C11.5571235,90.0935162 11.0939566,89.9023681 10.7410673,89.5200702 L7.27834081,86.1676228 C6.91074876,85.7706222 6.72695122,85.2853989 6.72695122,84.7119544 Z M12.726069,100.988973 C12.726069,98.7981185 13.2774586,96.7579765 14.3802377,94.8685482 C15.4830169,92.9791214 16.9791199,91.4830169 18.8685482,90.3802377 C20.7579765,89.2774601 22.7981185,88.7260705 24.9889725,88.7260705 C26.6357892,88.7260705 28.216438,89.053228 29.7309221,89.7075431 C31.2454047,90.3618581 32.5503595,91.2367299 33.6457866,92.332157 C34.7412136,93.427584 35.6124101,94.7325389 36.259373,96.2470229 C36.9063375,97.7615055 37.2298182,99.3421559 37.2298182,100.988973 C37.2298182,103.194531 36.6821054,105.238347 35.5866784,107.120423 C34.4912513,109.002499 33.002499,110.491251 31.1204228,111.586678 C29.2383467,112.682105 27.1945294,113.22982 24.9889725,113.22982 C22.7834142,113.22982 20.7395969,112.682105 18.8575208,111.586678 C16.9754446,110.491251 15.4830169,109.002499 14.3802377,107.120423 C13.2774586,105.238347 12.726069,103.194531 12.726069,100.988973 Z M16.7181302,100.988973 C16.7181302,103.282752 17.5231589,105.242023 19.1332163,106.866784 C20.7432722,108.491545 22.6951915,109.303926 24.9889725,109.303926 C27.2827521,109.303926 29.2420235,108.491545 30.8667837,106.866784 C32.4915454,105.242023 33.3039263,103.282752 33.3039263,100.988973 C33.3039263,98.7246 32.4915454,96.7910604 30.8667837,95.1883551 C29.2420235,93.5856498 27.2827521,92.7842964 24.9889725,92.7842964 C22.7098958,92.7842964 20.7616518,93.5856498 19.1442438,95.1883551 C17.5268342,96.7910604 16.7181302,98.7246 16.7181302,100.988973 Z M22.9819145,119.273049 C22.9819145,118.714307 23.176738,118.243788 23.5663865,117.861492 C23.9560364,117.479194 24.4302308,117.288046 24.9889725,117.288046 C25.5624171,117.288046 26.0402882,117.479194 26.4225846,117.861492 C26.8048809,118.243788 26.9960306,118.714307 26.9960306,119.273049 L26.9960306,123.948831 C26.9960306,124.522277 26.8012056,125.007498 26.4115571,125.404499 C26.0219086,125.8015 25.5477128,126 24.9889725,126 C24.4302308,126 23.9560364,125.8015 23.5663865,125.404499 C23.176738,125.007498 22.9819145,124.522277 22.9819145,123.948831 L22.9819145,119.273049 Z M22.9819145,82.8151739 L22.9819145,78.0070581 C22.9819145,77.4630206 23.1804148,76.9925016 23.5774154,76.5955009 C23.9744161,76.1985003 24.4449351,76 24.9889725,76 C25.53301,76 26.003529,76.1985003 26.4005297,76.5955009 C26.7975303,76.9925016 26.9960306,77.4630206 26.9960306,78.0070581 L26.9960306,82.8151739 C26.9960306,83.3592114 26.8012056,83.8113508 26.4115571,84.1715922 C26.0219086,84.5318336 25.5477128,84.7119544 24.9889725,84.7119544 C24.4302308,84.7119544 23.9560364,84.5318336 23.5663865,84.1715922 C23.176738,83.8113508 22.9819145,83.3592114 22.9819145,82.8151739 Z M35.9726515,113.825321 C35.9726515,113.281282 36.1490954,112.840171 36.5019847,112.501985 C36.854874,112.134393 37.295986,111.950595 37.8253191,111.950595 C38.3987651,111.950595 38.8692842,112.134393 39.2368762,112.501985 L42.6775478,115.854434 C43.0598442,116.266137 43.2509924,116.744008 43.2509924,117.288046 C43.2509924,117.832083 43.0598442,118.295251 42.6775478,118.677548 C41.7365098,119.412733 40.7954717,119.412733 39.8544336,118.677548 L36.5019847,115.325099 C36.1490954,114.928098 35.9726515,114.428172 35.9726515,113.825321 Z M35.9726515,88.1305695 C35.9726515,87.5424207 36.1490954,87.0792538 36.5019847,86.7410673 L39.8544336,83.2783423 C40.266137,82.8960445 40.7293039,82.7048963 41.2439343,82.7048963 C41.802676,82.7048963 42.2768704,82.9033966 42.6665189,83.3003972 C43.0561674,83.6973979 43.2509924,84.1679169 43.2509924,84.7119544 C43.2509924,85.3001032 43.0598442,85.7853265 42.6775478,86.1676228 L39.2368762,89.5200702 C38.8104685,89.9023681 38.3399495,90.0935162 37.8253191,90.0935162 C37.295986,90.0935162 36.854874,89.9060434 36.5019847,89.5310992 C36.1490954,89.1561535 35.9726515,88.6893113 35.9726515,88.1305695 Z M41.2880456,100.988973 C41.2880456,100.430231 41.4791938,99.945009 41.8614902,99.5333041 C42.243788,99.1510077 42.6922506,98.9598596 43.206881,98.9598596 L47.970887,98.9598596 C48.5149245,98.9598596 48.9891188,99.1620352 49.3934716,99.566388 C49.7978229,99.9707392 50,100.444935 50,100.988973 C50,101.53301 49.7978229,102.003529 49.3934716,102.40053 C48.9891188,102.79753 48.5149245,102.996031 47.970887,102.996031 L43.206881,102.996031 C42.6628436,102.996031 42.2070288,102.801206 41.8394352,102.411557 C41.4718417,102.021909 41.2880456,101.547714 41.2880456,100.988973 Z" id="Shape"></path>
                </g>
            </g>
        </g>
    </g>
</svg>