<?xml version="1.0" encoding="UTF-8"?>
<svg width="50px" height="36px" viewBox="0 0 50 36" version="1.1" xmlns="http://www.w3.org/2000/svg" xmlns:xlink="http://www.w3.org/1999/xlink">
    <!-- Generator: Sketch 52.4 (67378) - http://www.bohemiancoding.com/sketch -->
    <title>Shape</title>
    <desc>Created with Sketch.</desc>
    <g id="Page-1" stroke="none" stroke-width="1" fill="none" fill-rule="evenodd">
        <g id="Weather---Avenir-Next" transform="translate(-441.000000, -612.000000)" fill="#FFFFFF" fill-rule="nonzero">
            <g id="Group-3" transform="translate(309.000000, 499.000000)">
                <g id="Group-4" transform="translate(9.000000, 36.000000)">
                    <path d="M123,101.493947 C123,103.571428 123.511248,105.492736 124.533743,107.25787 C125.556237,109.023002 126.951213,110.421307 128.718668,111.452785 C130.486124,112.484261 132.414256,113 134.503068,113 L159.765995,113 C161.854805,113 163.786591,112.484261 165.56135,111.452785 C167.336109,110.421307 168.74204,109.023002 169.779142,107.25787 C170.816243,105.492736 171.334794,103.571428 171.334794,101.493947 C171.334794,100.012106 171.006136,98.4648909 170.348817,96.8523007 C172.116273,94.7021789 173,92.1452782 173,89.1815986 C173,86.9733662 172.459539,84.9358358 171.378616,83.0690074 C170.297693,81.2021791 168.818726,79.7239714 166.941718,78.6343828 C165.06471,77.5447943 163.016069,77 160.795794,77 C157.304703,77 154.288344,78.3510894 151.746714,81.0532682 C149.964652,80.0508471 147.868537,79.5496365 145.458369,79.5496365 C142.17178,79.5496365 139.268624,80.5593218 136.748905,82.5786924 C134.229185,84.5980631 132.611452,87.1912833 131.895706,90.3583531 C129.28104,90.9394669 127.144756,92.2687652 125.486854,94.3462464 C123.828951,96.4237292 123,98.806295 123,101.493947 Z M126.987731,101.493947 C126.987731,99.5617437 127.637745,97.8910413 128.937775,96.4818398 C130.237803,95.0726398 131.873795,94.2518163 133.84575,94.0193707 L135.445223,93.9539944 L135.598599,92.2760294 C135.919953,89.7627124 137.015483,87.6598057 138.885188,85.9673122 C140.754893,84.2748187 142.945954,83.4285713 145.458369,83.4285713 C148.014608,83.4285713 150.242186,84.2784501 152.141105,85.9782078 C154.040024,87.6779654 155.113644,89.7772393 155.361963,92.2760294 L155.60298,94.0193707 L159.765995,94.0193707 C161.825592,94.0193707 163.600351,94.7566582 165.090272,96.2312345 C166.580193,97.7058109 167.325154,99.4600478 167.325154,101.493947 C167.325154,103.585957 166.583846,105.380144 165.101228,106.876513 C163.61861,108.372881 161.840199,109.121065 159.765995,109.121065 L134.503068,109.121065 C132.472685,109.121065 130.712533,108.365617 129.222611,106.854721 C127.73269,105.343825 126.987731,103.556901 126.987731,101.493947 Z M155.099036,83.276029 C156.705814,81.7360778 158.604733,80.9661022 160.795794,80.9661022 C163.10371,80.9661022 165.06471,81.7615018 166.678791,83.3523009 C168.292873,84.9431 169.099912,86.8861987 169.099912,89.1815986 C169.099912,90.6198554 168.698219,92.0435838 167.894829,93.4527839 C165.659948,91.2300245 162.950336,90.1186434 159.765995,90.1186434 L159.042946,90.1186434 C158.400234,87.5326874 157.085598,85.2518159 155.099036,83.276029 Z" id="Shape"></path>
                </g>
            </g>
        </g>
    </g>
</svg>