<?xml version="1.0" encoding="UTF-8"?>
<svg width="63px" height="63px" viewBox="0 0 63 63" version="1.1" xmlns="http://www.w3.org/2000/svg" xmlns:xlink="http://www.w3.org/1999/xlink">
    <!-- Generator: Sketch 52.4 (67378) - http://www.bohemiancoding.com/sketch -->
    <title>Shape</title>
    <desc>Created with Sketch.</desc>
    <g id="Page-1" stroke="none" stroke-width="1" fill="none" fill-rule="evenodd">
        <g id="Weather---Avenir-Next" transform="translate(-569.000000, -598.000000)" fill="#FFFFFF" fill-rule="nonzero">
            <g id="Group-3" transform="translate(309.000000, 499.000000)">
                <g id="Group-4" transform="translate(9.000000, 36.000000)">
                    <path d="M251,100.663521 C251,103.789309 252.083565,106.478511 254.250695,108.731132 C256.417824,110.983752 259.070188,112.183438 262.207783,112.330188 C262.470465,112.330188 262.601807,112.198114 262.601807,111.933962 L262.601807,108.786164 C262.601807,108.522013 262.470465,108.389937 262.207783,108.389937 C260.208478,108.287212 258.504691,107.483753 257.096421,105.97956 C255.688151,104.475368 254.984017,102.703354 254.984017,100.663521 C254.984017,98.7264151 255.644371,97.0387839 256.96508,95.6006291 C258.285788,94.1624744 259.923906,93.3259958 261.87943,93.091195 L263.105282,92.9811324 C263.411744,92.9811324 263.564976,92.8490563 263.564976,92.5849057 L263.718207,91.3081752 C263.966296,88.7693914 265.035268,86.6415097 266.925121,84.9245287 C268.814976,83.2075478 271.036831,82.3490558 273.590689,82.3490558 C276.129951,82.3490558 278.355455,83.2075478 280.2672,84.9245287 C282.178944,86.6415097 283.266157,88.7693914 283.528839,91.3081752 L283.703962,92.650943 C283.703962,92.9444448 283.835302,93.091195 284.097986,93.091195 L287.884989,93.091195 C289.957262,93.091195 291.74861,93.8396228 293.259035,95.3364786 C294.769458,96.8333328 295.52467,98.6090147 295.52467,100.663521 C295.52467,102.703354 294.824184,104.475368 293.423211,105.97956 C292.022238,107.483753 290.322099,108.287212 288.322794,108.389937 C288.030924,108.389937 287.884989,108.522013 287.884989,108.786164 L287.884989,111.933962 C287.884989,112.198114 288.030924,112.330188 288.322794,112.330188 C291.431202,112.227463 294.068972,111.042453 296.236101,108.775158 C298.403231,106.507862 299.486796,103.803983 299.486796,100.663521 C299.486796,98.9758916 299.158443,97.4056608 298.501737,95.9528304 C300.32592,93.6781971 301.238013,91.08805 301.238013,88.1823893 C301.238013,85.9517813 300.68711,83.8862687 299.585302,81.9858486 C298.483495,80.08543 296.991313,78.5849061 295.108757,77.484277 C293.226199,76.3836478 291.183113,75.8333333 288.9795,75.8333333 C285.345726,75.8333333 282.324878,77.198113 279.916956,79.9276723 C278.005212,78.9004198 275.896456,78.3867928 273.590689,78.3867928 C270.292564,78.3867928 267.366573,79.417715 264.812717,81.4795594 C262.258861,83.5414038 260.624392,86.171908 259.909312,89.3710691 C257.326268,89.9874209 255.195622,91.3485324 253.517373,93.4544022 C251.839124,95.5602719 251,97.9633116 251,100.663521 Z M263.608756,116.754717 C263.608756,117.150943 263.736449,117.536164 263.991835,117.910377 C264.24722,118.284592 264.630299,118.545073 265.141071,118.691824 C265.403753,118.750524 265.615357,118.779873 265.775886,118.779873 C266.695275,118.779873 267.293606,118.280922 267.570882,117.283019 L271.270326,103.481131 C271.430855,102.92348 271.368832,102.402516 271.084259,101.918238 C270.799688,101.433963 270.387422,101.140461 269.847464,101.037736 C269.336692,100.87631 268.844163,100.927673 268.369875,101.191824 C267.895587,101.455974 267.578179,101.852201 267.417651,102.380504 L263.718207,116.248427 C263.64524,116.541929 263.608756,116.710691 263.608756,116.754717 Z M269.694233,123.996855 C269.694233,124.437107 269.81098,124.84434 270.044476,125.218553 C270.277971,125.592767 270.679291,125.823899 271.248437,125.911949 C271.511119,125.97065 271.715428,126 271.861362,126 C272.226199,126 272.576443,125.864256 272.912092,125.592767 C273.247741,125.321279 273.459347,124.943396 273.546908,124.459119 L279.1508,103.481131 C279.296734,102.938155 279.242009,102.435535 278.986622,101.97327 C278.731237,101.511006 278.340861,101.199162 277.815497,101.037736 C277.275539,100.87631 276.768415,100.927673 276.294129,101.191824 C275.819841,101.455974 275.509729,101.852201 275.363794,102.380504 L269.759903,123.358491 C269.716122,123.754716 269.694233,123.967505 269.694233,123.996855 Z M270.679291,71.8050315 C270.679291,72.3626838 270.876303,72.8396218 271.270326,73.2358484 L272.78075,74.7767295 C273.233149,75.1289308 273.714732,75.3050306 274.225504,75.3050306 C274.721681,75.3050306 275.17408,75.121593 275.582696,74.7547176 C275.991314,74.3878407 276.195623,73.9255768 276.195623,73.3679245 C276.195623,72.795598 276.005906,72.2966451 275.626477,71.8710687 L274.137942,70.3522011 C273.714732,69.9559745 273.247741,69.7578612 272.73697,69.7578612 C272.167825,69.7578612 271.682592,69.9596441 271.281271,70.3632071 C270.879952,70.7667715 270.679291,71.2473791 270.679291,71.8050315 Z M279.391591,116.820755 C279.391591,117.202306 279.511988,117.572851 279.75278,117.93239 C279.993571,118.291928 280.354761,118.545073 280.836344,118.691824 C281.099028,118.750524 281.29604,118.779873 281.42738,118.779873 C281.835998,118.779873 282.219075,118.666143 282.576616,118.43868 C282.934156,118.211217 283.164004,117.825996 283.266157,117.283019 L286.965601,103.481131 C287.111536,102.938155 287.05681,102.435535 286.801425,101.97327 C286.546039,101.511006 286.155664,101.199162 285.630299,101.037736 C285.075747,100.87631 284.568624,100.927673 284.10893,101.191824 C283.649236,101.455974 283.346422,101.852201 283.200487,102.380504 L279.501043,116.248427 C279.428076,116.585955 279.391591,116.77673 279.391591,116.820755 Z M283.200487,82.1949679 C284.849548,80.6247386 286.775887,79.8396232 288.9795,79.8396232 C291.270674,79.8396232 293.218902,80.6504186 294.824184,82.2720126 C296.429466,83.893605 297.232106,85.8637321 297.232106,88.1823893 C297.232106,89.6498953 296.830785,91.0953878 296.028145,92.5188685 C293.766157,90.2442352 291.051772,89.1069185 287.884989,89.1069185 L287.118833,89.1069185 C286.462127,86.3773576 285.156011,84.0733746 283.200487,82.1949679 Z M286.965601,69.8679238 C286.965601,70.4109006 287.162613,70.8694963 287.556637,71.243711 C287.95066,71.6179241 288.424948,71.8050315 288.9795,71.8050315 C289.519458,71.8050315 289.975504,71.6215938 290.347637,71.2547169 C290.719771,70.88784 290.905838,70.4255762 290.905838,69.8679238 L290.905838,65.0471703 C290.905838,64.4454926 290.723419,63.953879 290.358583,63.5723265 C289.993746,63.1907755 289.534052,63 288.9795,63 C288.395761,63 287.914176,63.1944436 287.534746,63.5833324 C287.155316,63.9722227 286.965601,64.4601682 286.965601,65.0471703 L286.965601,69.8679238 Z M299.88082,75.2169815 C299.88082,75.7893079 300.092425,76.2515718 300.515637,76.6037731 C300.836692,76.9706499 301.263551,77.1724314 301.796212,77.2091189 C302.328875,77.2458065 302.814108,77.044025 303.251911,76.6037731 L306.623003,73.2358484 C307.031619,72.8396218 307.235928,72.3480082 307.235928,71.7610061 C307.235928,71.1886796 307.042564,70.7117402 306.655837,70.3301892 C306.26911,69.9486367 305.791174,69.7578612 305.22203,69.7578612 C304.740445,69.7578612 304.288048,69.9559745 303.864838,70.3522011 L300.515637,73.7421376 C300.092425,74.1383642 299.88082,74.6299794 299.88082,75.2169815 Z M301.785268,103.040881 C301.785268,103.598532 301.974983,104.090147 302.354412,104.515723 L303.864838,105.990566 C304.273454,106.313417 304.740445,106.474843 305.26581,106.474843 L305.30959,106.518868 C305.834955,106.518868 306.287352,106.328093 306.666783,105.94654 C307.046213,105.564989 307.235928,105.08805 307.235928,104.515723 C307.235928,103.958071 307.031619,103.503145 306.623003,103.150944 L305.178249,101.610062 C304.755039,101.228511 304.273454,101.037736 303.733496,101.037736 C303.193538,101.037736 302.733844,101.23218 302.354412,101.621068 C301.974983,102.009959 301.785268,102.483229 301.785268,103.040881 Z M305.178249,88.1823893 C305.178249,88.7400416 305.382558,89.2023055 305.791174,89.5691824 C306.199792,89.9800831 306.681376,90.1855342 307.235928,90.1855342 L311.986102,90.1855342 C312.540654,90.1855342 313.01494,89.9874209 313.408964,89.5911943 C313.802988,89.1949677 314,88.725366 314,88.1823893 C314,87.6247384 313.802988,87.1441293 313.408964,86.7405663 C313.01494,86.3370019 312.540654,86.1352205 311.986102,86.1352205 L307.235928,86.1352205 C306.681376,86.1352205 306.199792,86.3370019 305.791174,86.7405663 C305.382558,87.1441293 305.178249,87.6247384 305.178249,88.1823893 Z" id="Shape"></path>
                </g>
            </g>
        </g>
    </g>
</svg>