<?xml version="1.0" encoding="UTF-8"?>
<svg width="49px" height="47px" viewBox="0 0 49 47" version="1.1" xmlns="http://www.w3.org/2000/svg" xmlns:xlink="http://www.w3.org/1999/xlink">
    <!-- Generator: Sketch 52.4 (67378) - http://www.bohemiancoding.com/sketch -->
    <title>Shape</title>
    <desc>Created with Sketch.</desc>
    <g id="Page-1" stroke="none" stroke-width="1" fill="none" fill-rule="evenodd">
        <g id="Weather---Avenir-Next" transform="translate(-698.000000, -618.000000)" fill="#FFFFFF" fill-rule="nonzero">
            <g id="Group-3" transform="translate(309.000000, 499.000000)">
                <g id="Group-4" transform="translate(9.000000, 36.000000)">
                    <path d="M380,105.192613 C380,102.497273 380.84954,100.098567 382.54862,97.9964927 C384.247701,95.8944204 386.397408,94.5430879 388.997739,93.9424966 C389.736469,90.749103 391.398614,88.1270052 393.98417,86.0762034 C396.569727,84.0254016 399.524649,83 402.848937,83 C406.099353,83 408.998869,83.9997664 411.54749,85.9992976 C414.096111,87.9988304 415.75456,90.5659961 416.522841,93.7007946 L417.276346,93.7007946 C419.389115,93.7007946 421.346752,94.2098324 423.149254,95.2279095 C424.951757,96.2459865 426.377507,97.6376035 427.426504,99.4027573 C428.475502,101.167913 429,103.097864 429,105.192613 C429,107.243415 428.501357,109.151395 427.504071,110.91655 C426.506785,112.681704 425.143826,114.091631 423.415197,115.14633 C421.686568,116.201028 419.795417,116.757675 417.741746,116.816269 C417.431479,116.816269 417.276346,116.684431 417.276346,116.420757 L417.276346,113.300607 C417.276346,113.022284 417.431479,112.883123 417.741746,112.883123 C419.751093,112.780582 421.468642,111.982234 422.894392,110.488078 C424.320143,108.993921 425.033017,107.228768 425.033017,105.192613 C425.033017,103.156459 424.264737,101.387642 422.728178,99.8861613 C421.191617,98.3846802 419.374341,97.6339404 417.276346,97.6339404 L413.464497,97.6339404 C413.183779,97.6339404 413.043419,97.5021026 413.043419,97.2384283 L412.866125,95.8761097 C412.600182,93.3419039 411.503166,91.2215209 409.57508,89.5149591 C407.646993,87.8083989 405.404945,86.9551181 402.848937,86.9551181 C400.263381,86.9551181 398.013945,87.8083989 396.100634,89.5149591 C394.18732,91.2215209 393.112468,93.3419039 392.876074,95.8761097 L392.698779,97.1285642 C392.698779,97.4215367 392.543646,97.5680223 392.233379,97.5680223 L390.992311,97.6339404 C389.027288,97.8683179 387.376225,98.703288 386.039122,100.138849 C384.70202,101.574411 384.03347,103.258999 384.03347,105.192613 C384.03347,107.228768 384.742651,108.993921 386.161014,110.488078 C387.579376,111.982234 389.300618,112.780582 391.324741,112.883123 C391.590683,112.883123 391.723654,113.022284 391.723654,113.300607 L391.723654,116.420757 C391.723654,116.684431 391.590683,116.816269 391.324741,116.816269 C388.162973,116.669783 385.485074,115.475922 383.291045,113.234689 C381.097015,110.993454 380,108.312763 380,105.192613 Z M392.654455,120.85928 C392.654455,120.756739 392.684004,120.602929 392.743103,120.397848 L396.599277,106.884524 C396.747023,106.430419 397.001885,106.086177 397.363863,105.8518 C397.725841,105.617422 398.091513,105.500234 398.460877,105.500234 C398.623398,105.500234 398.815468,105.522206 399.037088,105.566152 C399.598523,105.668691 400.023292,105.954339 400.311398,106.423094 C400.599503,106.891849 400.662295,107.411874 400.499775,107.983169 L396.643601,121.408601 C396.348108,122.404706 395.698026,122.902757 394.693351,122.902757 C394.604703,122.902757 394.516057,122.88811 394.427409,122.858811 C394.294437,122.814865 394.213176,122.792893 394.183627,122.792893 C393.666516,122.646408 393.282376,122.386395 393.031207,122.012857 C392.78004,121.639317 392.654455,121.254791 392.654455,120.85928 Z M398.859792,127.451145 L404.621891,106.884524 C404.725312,106.430419 404.961706,106.086177 405.331072,105.8518 C405.700438,105.617422 406.084577,105.500234 406.483492,105.500234 C406.690337,105.500234 406.904568,105.522206 407.126188,105.566152 C407.643298,105.712637 408.027439,106.016596 408.278607,106.478026 C408.529776,106.939457 408.581487,107.441171 408.43374,107.983169 L402.693804,128.571762 C402.605156,128.967274 402.37615,129.304191 402.006784,129.582514 C401.637419,129.860838 401.238505,130 400.810041,130 C400.588421,130 400.388964,129.963379 400.211669,129.890134 C399.738882,129.772946 399.332579,129.465325 398.992764,128.967274 C398.726821,128.557114 398.682497,128.051736 398.859792,127.451145 Z M408.611036,120.925198 C408.611036,120.837306 408.640585,120.661524 408.699684,120.397848 L412.555858,106.884524 C412.688828,106.430419 412.928917,106.086177 413.27612,105.8518 C413.623323,105.617422 413.988994,105.500234 414.373135,105.500234 C414.565205,105.500234 414.772049,105.522206 414.993669,105.566152 C415.48123,105.69799 415.846903,105.93969 416.090683,106.291258 C416.334464,106.642822 416.456355,107.009038 416.456355,107.389901 C416.456355,107.463145 416.44158,107.569346 416.412031,107.708509 C416.382483,107.847669 416.367707,107.939223 416.367707,107.983169 L412.511534,121.408601 C412.422886,121.862708 412.201267,122.22526 411.846676,122.496259 C411.492086,122.767258 411.093171,122.902757 410.649932,122.902757 L410.073723,122.792893 C409.600935,122.661055 409.238957,122.408367 408.987788,122.034829 C408.736621,121.66129 408.611036,121.291414 408.611036,120.925198 Z" id="Shape"></path>
                </g>
            </g>
        </g>
    </g>
</svg>